<?xml version="1.0" encoding="UTF-8" standalone="no"?>
<svg width="89px" height="32px" viewBox="0 0 89 32" version="1.1" xmlns="http://www.w3.org/2000/svg" xmlns:xlink="http://www.w3.org/1999/xlink">
    <!-- Generator: Sketch 3.7.2 (28276) - http://www.bohemiancoding.com/sketch -->
    <title>Group</title>
    <desc>Created with Sketch.</desc>
    <defs></defs>
    <g id="Page-1" stroke="none" stroke-width="1" fill="none" fill-rule="evenodd">
        <g id="Icons" transform="translate(-63.000000, -650.000000)" fill="#333333">
            <g id="Group" transform="translate(63.000000, 650.000000)">
                <path d="M29.7812571,13.0755429 C28.463499,6.61065512 22.7534129,1.83179288 15.9573413,1.83179288 C8.21327227,1.83179288 1.87955091,8.06519522 1.87955091,15.9380874 C1.87955091,19.355481 3.08142277,22.4256464 5.04671026,24.8502538 L3.79824496,26.1198919 C1.50979013,23.3724697 0.122739202,19.83993 0.122739202,15.9380874 C0.122739202,7.11896856 7.14998603,0.123096064 15.9573413,0.123096064 C23.8172965,0.123096064 30.2436074,5.66442847 31.5613655,13.0755429 L29.7812571,13.0755429 L29.7812571,13.0755429 Z" id="path2998"></path>
                <path d="M31.8152401,15.9380874 C31.8152401,24.7345111 24.7879932,31.7536753 15.980638,31.7536753 C12.0972538,31.7536753 8.56033368,30.3910135 5.80952854,28.1286607 L7.05739649,26.8817416 C9.50833102,28.8672664 12.6056002,30.0449785 15.980638,30.0449785 C19.7254366,30.0449785 23.1697672,28.6363537 25.7126939,26.2815499 C25.1344573,22.8181933 24.4415292,19.4706271 23.7014103,16.2614511 L25.4815187,15.8229413 C26.1284507,18.6854857 26.6833906,21.8021869 27.1690376,24.6885958 C28.9951421,22.3105003 30.0817251,19.2630061 30.0817251,15.9380874 L31.8152401,15.9380874 L31.8152401,15.9380874 Z" id="path3000"></path>
                <path d="M21.7827162,17.7851982 C21.3203659,17.5310415 20.6501372,17.2774814 19.8180261,17.2774814 C18.3616824,17.2774814 17.8300392,18.1318298 17.7607464,18.8012284 C17.6914536,19.563102 18.2923895,20.0016118 18.9166222,20.3709147 L20.6501372,21.3869449 C22.1291803,22.2412933 22.4535423,23.2572997 22.3603554,24.2960251 C22.2217698,25.9122232 21.019898,27.597676 18.1305072,27.597676 L18.0379177,27.597676 C16.3969922,27.597676 15.3104093,26.9277046 14.8247622,26.5124149 L15.7028694,25.1736175 C16.1658171,25.4504455 16.9979281,25.9814302 18.1771006,25.9814302 C19.9566117,25.9814302 20.4422588,25.0811665 20.4882548,24.2960251 C20.5348483,23.5800907 19.9799084,23.049106 19.3323791,22.6797793 L17.5988641,21.6643695 C16.1885164,20.8326924 15.7727596,19.9324048 15.8653491,18.8012284 C16.0039347,17.3001526 17.2750994,15.7077951 19.9106156,15.7077951 L20.0026078,15.7077951 C21.205077,15.7077951 22.1757737,16.1230371 22.6154247,16.4231329 L21.7827162,17.7851982 L21.7827162,17.7851982 Z" id="path3002"></path>
                <path d="M43.6971651,15.7077951 C46.2400918,15.7077951 47.3499715,17.2774814 47.0262068,19.493895 L45.9163272,27.3667633 L43.9982305,27.3667633 L45.1075128,19.4473593 C45.3153912,18.016087 44.6678619,17.3234205 43.5125834,17.3234205 C42.2408214,17.3234205 41.3161208,18.1085619 41.1082424,19.632309 L40.9929535,20.4633895 L40.0216594,27.3667633 L38.1029653,27.3667633 L39.0736621,20.4401216 L39.1895483,19.632309 L39.2122477,19.4473593 C39.4207235,18.016087 38.7731941,17.3234205 37.6179157,17.3234205 C36.3461536,17.3234205 35.421453,18.1085619 35.2135746,19.632309 L34.1269916,27.3667633 L32.2082976,27.3667633 L33.2715838,19.7474551 C33.6186452,17.2082744 35.1675785,15.7077951 37.7099078,15.7077951 L37.8024974,15.7077951 C39.1202555,15.7077951 40.0216594,16.2614511 40.5073064,17.1384708 C41.246828,16.2614511 42.3101142,15.7077951 43.6045756,15.7077951 L43.6971651,15.7077951 L43.6971651,15.7077951 Z" id="path3004"></path>
                <path d="M56.9661411,23.5574194 C56.5963804,26.0966002 55.0474471,27.597676 52.296642,27.597676 L52.2040524,27.597676 C51.3253479,27.597676 50.6324198,27.3202275 50.1467728,26.9049856 L49.5458368,31.1528631 L47.6271428,31.1528631 L49.2220721,19.7474551 C49.5691335,17.2082744 51.1407662,15.7077951 53.8915713,15.7077951 L53.9841609,15.7077951 C56.6656732,15.7077951 57.8448457,17.3466883 57.521081,19.632309 L56.9661411,23.5574194 L56.9661411,23.5574194 Z M50.6557165,23.2340557 L50.5398303,24.0651124 C50.423944,25.3579945 51.0947701,25.9814302 52.3892315,25.9814302 C53.868872,25.9814302 54.8162719,25.1962888 55.0241504,23.6725417 L55.6256837,19.4473593 C55.8335621,18.016087 55.1633334,17.3234205 53.7989818,17.3234205 C52.3199387,17.3234205 51.3719413,18.1085619 51.1640629,19.632309 L50.6557165,23.2340557 L50.6557165,23.2340557 Z" id="path3006"></path>
                <path d="M64.0166847,15.7077951 C66.7441931,15.7077951 67.7381865,17.1384708 67.484312,18.8937033 L66.6749003,24.5961448 C66.4210258,26.4897436 65.0339748,27.597676 62.4217553,27.597676 L62.3064664,27.597676 C59.3704822,27.597676 58.2146065,26.0506372 58.4690783,24.1809028 L58.4690783,24.1576111 C58.9081319,20.9711063 62.6989266,20.0475509 65.4037356,20.2092328 L65.5889147,18.8937033 C65.7042036,18.0393549 65.1032677,17.3234205 63.8780991,17.3234205 L63.69292,17.3234205 C62.5836377,17.3234205 61.3817658,17.7392591 60.7342364,18.0393549 L60.2025933,16.7232288 C61.0807005,16.1689762 62.7449227,15.7077951 64.0166847,15.7077951 M64.8254991,24.2500621 L65.1725605,21.7795156 C63.4157488,21.6411016 60.7109397,21.9871366 60.3877724,24.1116481 L60.3877724,24.1809028 C60.2485894,25.1503735 61.0114077,25.9814302 62.4910481,25.9814302 C63.7855095,25.9814302 64.6409173,25.4731167 64.8254991,24.2500621" id="path3008"></path>
                <path d="M76.8000137,27.3667633 L74.8813196,27.3667633 L75.9906019,19.4473593 C76.1990777,18.016087 75.528849,17.3234205 74.1644974,17.3234205 C72.6854543,17.3234205 71.7380543,18.1085619 71.5295785,19.632309 L70.4429956,27.3667633 L68.5243015,27.3667633 L69.5875878,19.7474551 C69.9346492,17.2082744 71.5062818,15.7077951 74.257087,15.7077951 L74.3496765,15.7077951 C77.1004816,15.7077951 78.2103613,17.2774814 77.9098934,19.493895 L76.8000137,27.3667633 L76.8000137,27.3667633 Z" id="path3010"></path>
                <path d="M81.4928096,26.6049136 L79.181058,16.2614511 L80.9844632,15.8229413 L82.787271,24.3652321 C84.2436147,21.6643695 85.49208,18.8471676 86.5320695,15.9154161 L88.1735923,16.3998651 C86.3008944,21.7103086 83.7119716,26.6508289 80.4988161,31.1528631 L78.3722437,31.1528631 C79.4588266,29.6756518 80.5221129,28.1513319 81.4928096,26.6049136" id="path3012"></path>
            </g>
        </g>
    </g>
</svg>