<?xml version="1.0" encoding="UTF-8" standalone="no"?>
<svg width="299px" height="99px" viewBox="0 0 299 99" version="1.1" xmlns="http://www.w3.org/2000/svg" xmlns:xlink="http://www.w3.org/1999/xlink">
    <!-- Generator: Sketch 3.7.2 (28276) - http://www.bohemiancoding.com/sketch -->
    <title>Logo</title>
    <desc>Created with Sketch.</desc>
    <defs>
        <polygon id="path-1" points="299 0.844296875 0.0507488987 0.844296875 0.0507488987 99.1109844 299 99.1109844"></polygon>
    </defs>
    <g id="Page-1" stroke="none" stroke-width="1" fill="none" fill-rule="evenodd">
        <g id="Icons" transform="translate(-60.000000, -508.000000)">
            <g id="Logo" transform="translate(60.000000, 507.000000)">
                <g id="Group-3" transform="translate(0.000000, 0.833250)">
                    <mask id="mask-2" fill="white">
                        <use xlink:href="#path-1"></use>
                    </mask>
                    <g id="Clip-2"></g>
                    <path d="M-241.057269,-199.415031 C-241.057269,-364.286484 -106.743965,-497.942625 58.9400881,-497.942625 C224.624141,-497.942625 358.939031,-364.286484 358.939031,-199.415031 C358.939031,-34.5435781 224.624141,99.1109844 58.9400881,99.1109844 C-106.743965,99.1109844 -241.057269,-34.5435781 -241.057269,-199.415031 Z" id="Fill-1" fill="#CA0018" mask="url(#mask-2)"></path>
                </g>
                <g id="Group-34" transform="translate(25.374449, 0.833250)">
                    <path d="M183.463612,97.061 C162.962643,97.061 146.343965,80.5238281 146.343965,60.1234062 C146.343965,39.7245625 162.962643,23.1873906 183.463612,23.1873906 C203.962996,23.1873906 220.581674,39.7245625 220.581674,60.1234062 C220.581674,80.5238281 203.962996,97.061 183.463612,97.061" id="Fill-4" fill="#B60B19"></path>
                    <path d="M230.274714,60.1234063 C216.607401,60.1234063 205.528282,49.098625 205.528282,35.4999219 C205.528282,21.8996406 216.607401,10.8748594 230.274714,10.8748594 C243.942026,10.8748594 255.021145,21.8996406 255.021145,35.4999219 C255.021145,49.098625 243.942026,60.1234063 230.274714,60.1234063" id="Fill-6" fill="#D12413"></path>
                    <path d="M255.021145,99.1109844 C248.187489,99.1109844 242.64793,93.5985937 242.64793,86.7984531 C242.64793,79.9983125 248.187489,74.4859219 255.021145,74.4859219 C261.854802,74.4859219 267.394361,79.9983125 267.394361,86.7984531 C267.394361,93.5985937 261.854802,99.1109844 255.021145,99.1109844" id="Fill-8" fill="#CA0018"></path>
                    <g id="Group-5" transform="translate(0.000000, 24.000000)">
                        <path d="M38.1917181,16.7724375 C36.5281057,8.6419375 29.3201762,2.63085937 20.7404405,2.63085937 C10.9649339,2.63085937 2.96881057,10.4709844 2.96881057,20.3737187 C2.96881057,24.6709531 4.48651982,28.532625 6.96687225,31.5815625 L5.39207048,33.178625 C2.50255507,29.7241094 0.751718062,25.2801094 0.751718062,20.3737187 C0.751718062,9.2795 9.62325991,0.481453125 20.7404405,0.481453125 C30.6634361,0.481453125 38.7753304,7.45203125 40.4389427,16.7724375 L38.1917181,16.7724375 Z" id="Fill-10" fill="#FFEC00"></path>
                        <path d="M40.7592952,20.3737187 C40.7592952,31.436375 31.8877533,40.2644062 20.7705727,40.2644062 C15.8685463,40.2644062 11.4026432,38.5505625 7.93110132,35.7052031 L9.50590308,34.1365469 C12.6,36.6347187 16.5092511,38.115 20.7705727,38.115 C25.4981498,38.115 29.846696,36.3443437 33.054978,33.3822031 C32.3254626,29.0265781 31.45163,24.8161406 30.517533,20.7792969 L32.7647577,20.2285312 C33.5814978,23.8282344 34.2808811,27.7482969 34.8946256,31.3795625 C37.1989427,28.3874375 38.5707489,24.5541719 38.5707489,20.3737187 L40.7592952,20.3737187 Z" id="Fill-12" fill="#FFFFFF"></path>
                        <path d="M28.0942731,22.6967188 C27.5106608,22.3763594 26.6653744,22.0575781 25.6139207,22.0575781 C23.775859,22.0575781 23.105022,23.1322813 23.0177974,23.9734219 C22.9305727,24.9329219 23.6886344,25.4836875 24.4768282,25.9476563 L26.6653744,27.2259375 C28.5319824,28.3006406 28.9411454,29.5789219 28.8237885,30.8856094 C28.6493392,32.9182344 27.13163,35.0376563 23.4840529,35.0376563 L23.3682819,35.0376563 C21.2955066,35.0376563 19.9237004,34.1949375 19.3115419,33.6725781 L20.4200881,31.9887188 C21.0037004,32.3374844 22.0551542,33.0050313 23.5427313,33.0050313 C25.7899559,33.0050313 26.4021145,31.8719375 26.460793,30.8856094 C26.5194714,29.9845 25.8185022,29.3169531 25.0017621,28.8529844 L22.8132159,27.5747031 C21.0322467,26.5299844 20.5073128,25.3968906 20.6246696,23.9734219 C20.8007048,22.0859844 22.4040529,20.0833438 25.7312775,20.0833438 L25.8486344,20.0833438 C27.3663436,20.0833438 28.5906608,20.6057031 29.1457269,20.982875 L28.0942731,22.6967188 Z" id="Fill-14" fill="#FFFFFF"></path>
                        <path d="M55.7587665,20.0833438 C58.9702203,20.0833438 60.3705727,22.0575781 59.9614097,24.8445469 L58.5610573,34.7472813 L56.1393833,34.7472813 L57.5397357,24.7877344 C57.8014097,22.9870938 56.9846696,22.1159688 55.5256388,22.1159688 C53.9207048,22.1159688 52.7534802,23.1022969 52.4902203,25.0197188 L52.3459031,26.0644375 L51.12,34.7472813 L48.6967401,34.7472813 L49.9226432,26.0360313 L50.0685463,25.0197188 L50.0970925,24.7877344 C50.3603524,22.9870938 49.5436123,22.1159688 48.0845815,22.1159688 C46.4796476,22.1159688 45.3124229,23.1022969 45.049163,25.0197188 L43.6773568,34.7472813 L41.2556828,34.7472813 L42.5989427,25.1649063 C43.036652,21.9707813 44.9904846,20.0833438 48.2003524,20.0833438 L48.3177093,20.0833438 C49.9813216,20.0833438 51.12,20.7792969 51.7321586,21.8824063 C52.6662555,20.7792969 54.0079295,20.0833438 55.6429956,20.0833438 L55.7587665,20.0833438 Z" id="Fill-16" fill="#FFFFFF"></path>
                        <path d="M72.5090749,29.9560938 C72.0428194,33.1502188 70.0874009,35.0376563 66.6142731,35.0376563 L66.4985022,35.0376563 C65.38837,35.0376563 64.5145374,34.6888906 63.900793,34.1665313 L63.1427313,39.5084844 L60.7194714,39.5084844 L62.7335683,25.1649063 C63.1712775,21.9707813 65.1568282,20.0833438 68.62837,20.0833438 L68.7457269,20.0833438 C72.1300441,20.0833438 73.619207,22.144375 73.2100441,25.0197188 L72.5090749,29.9560938 Z M64.5430837,29.5489375 L64.3971806,30.5952344 C64.2512775,32.2207031 65.0981498,33.0050313 66.73163,33.0050313 C68.5998238,33.0050313 69.7955947,32.017125 70.0588546,30.1012813 L70.8169163,24.7877344 C71.0801762,22.9870938 70.233304,22.1159688 68.5110132,22.1159688 C66.6444053,22.1159688 65.4486344,23.1022969 65.1853744,25.0197188 L64.5430837,29.5489375 Z" id="Fill-18" fill="#FFFFFF"></path>
                        <path d="M81.409163,20.0833438 C84.8537445,20.0833438 86.1081938,21.8824063 85.7878414,24.0902031 L84.7665198,31.2627813 C84.4445815,33.6441719 82.6937445,35.0376563 79.396652,35.0376563 L79.2507489,35.0376563 C75.5444934,35.0376563 74.0854626,33.0918281 74.4074009,30.7388438 L74.4074009,30.7104375 C74.9608811,26.7035781 79.7471366,25.5420781 83.1615859,25.7456563 L83.3947137,24.0902031 C83.5406167,23.0155 82.7825551,22.1159688 81.2347137,22.1159688 L81.0015859,22.1159688 C79.6012335,22.1159688 78.0835242,22.6383281 77.2667841,23.0155 L76.5943612,21.3600469 C77.7044934,20.6640938 79.8042291,20.0833438 81.409163,20.0833438 M82.4304846,30.8272188 L82.8697797,27.7198906 C80.6511013,27.5462969 77.236652,27.9802813 76.8290749,30.653625 L76.8290749,30.7388438 C76.6530396,31.9587344 77.6156828,33.0050313 79.4838767,33.0050313 C81.1173568,33.0050313 82.1973568,32.3658906 82.4304846,30.8272188" id="Fill-20" fill="#FFFFFF"></path>
                        <path d="M97.5473128,34.7472813 L95.1256388,34.7472813 L96.5259912,24.7877344 C96.7876652,22.9870938 95.9423789,22.1159688 94.2200881,22.1159688 C92.3534802,22.1159688 91.1577093,23.1022969 90.8944493,25.0197188 L89.5226432,34.7472813 L87.0993833,34.7472813 L88.4426432,25.1649063 C88.8803524,21.9707813 90.8643172,20.0833438 94.3374449,20.0833438 L94.4548018,20.0833438 C97.9263436,20.0833438 99.326696,22.0575781 98.9476652,24.8445469 L97.5473128,34.7472813 Z" id="Fill-22" fill="#FFFFFF"></path>
                        <path d="M103.472247,33.7893594 L100.552599,20.7792969 L102.829956,20.2285312 L105.105727,30.9724062 C106.943789,27.5747031 108.520176,24.0318125 109.833304,20.3437344 L111.904493,20.9544687 C109.541498,27.6330937 106.272952,33.8461719 102.216211,39.5100625 L99.5312775,39.5100625 C100.903084,37.6510312 102.246344,35.7336094 103.472247,33.7893594" id="Fill-24" fill="#FFFFFF"></path>
                    </g>
                    <path d="M254.935507,33.4388906 C254.259912,25.3225938 249.630661,18.3251875 242.968282,14.3562031 C247.464317,9.99426563 251.836652,5.47767188 256.051982,0.844296875 L272.826079,0.844296875 C270.344141,13.534 263.948194,24.8302188 254.935507,33.4388906" id="Fill-26" fill="#FFFFFF" opacity="0.200000003"></path>
                    <path d="M205.986608,30.7608125 C199.739736,26.0106563 191.932335,23.1873906 183.463612,23.1873906 C176.537974,23.1873906 170.057974,25.07325 164.510485,28.3573281 C158.006696,20.5755938 153.393304,11.1699688 151.374449,0.844296875 L256.051982,0.844296875 C251.836652,5.47767188 247.464317,9.99426563 242.968282,14.3562031 C239.257269,12.14525 234.915066,10.8748594 230.274714,10.8748594 C218.236123,10.8748594 208.205286,19.4282969 205.986608,30.7608125" id="Fill-28" fill="#C83E3D"></path>
                    <path d="M210.701498,50.5662812 C192.130573,50.1575469 175.581674,41.6056875 164.510485,28.3573281 C170.057974,25.07325 176.537974,23.1873906 183.463612,23.1873906 C191.932335,23.1873906 199.739736,26.0106562 205.986608,30.7608125 C205.686872,32.29475 205.528282,33.8791875 205.528282,35.4999219 C205.528282,41.1748594 207.458326,46.4016094 210.701498,50.5662812" id="Fill-30" fill="#BE3C39"></path>
                    <path d="M212.100264,50.5820625 C211.634009,50.5820625 211.166167,50.5773281 210.701498,50.5662813 C207.458326,46.4016094 205.528282,41.1748594 205.528282,35.4999219 C205.528282,33.8791875 205.686872,32.29475 205.986608,30.7608125 C208.205286,19.4282969 218.236123,10.8748594 230.274714,10.8748594 C234.915066,10.8748594 239.257269,12.14525 242.968282,14.3562031 C249.630661,18.3251875 254.259912,25.3225938 254.935507,33.4388906 C243.819912,44.0565156 228.725286,50.5820625 212.100264,50.5820625" id="Fill-32" fill="#CC5D35"></path>
                </g>
            </g>
        </g>
    </g>
</svg>