<svg width="64" height="64" viewBox="0 0 64 64" xmlns="http://www.w3.org/2000/svg"><path d="M62.578 14.11h-18.63C43.02 10.06 38.115 7 32 7c-6.116 0-10.95 3.058-11.947 7.11H1.423C.64 14.11 0 14.75 0 15.534v39.823c0 .782.64 1.422 1.422 1.422h61.156c.782 0 1.422-.64 1.422-1.422V15.533c0-.782-.64-1.422-1.422-1.422zm-41.245 8.392l2.134 2.134v8.675H19.2v-8.674l2.133-2.134zm-1.422-2.56l-3.128 3.13c-.284.284-.426.64-.426.995v10.666c0 .783.64 1.423 1.422 1.423h7.11c.783 0 1.423-.64 1.423-1.423V24.067c0-.356-.14-.71-.426-.996l-3.128-3.128v-2.986H51.2v36.977H12.8V16.956h7.11v2.986zM32 9.844c4.196 0 7.893 1.85 8.96 4.267H23.04c1.067-2.417 4.764-4.266 8.96-4.266zM2.844 16.956h7.112v36.977H2.844V16.956zm58.312 36.977h-7.112V16.956h7.112v36.977z" fill="#999"/></svg>