<svg width="64" height="64" viewBox="0 0 64 64" xmlns="http://www.w3.org/2000/svg"><path d="M60.724 27.586C62.63 27.048 64 25.282 64 23.13c0-2.534-2.057-4.608-4.57-4.608h-3.05l-1.523-4.61C52.57 7 45.714 7 45.714 7H18.287s-6.858 0-9.144 6.913l-1.524 4.61H4.57C2.058 18.522 0 20.595 0 23.13c0 2.075 1.37 3.842 3.276 4.456C1.296 29.276 0 31.81 0 34.653v9.218c0 1.307.838 2.382 2.286 3.304v8.22c0 1.305.99 2.303 2.285 2.303h6.86c1.294 0 2.284-.998 2.284-2.304v-5.377c6.553.69 13.943.768 18.286.768 4.343 0 11.733 0 18.286-.768v5.377c0 1.306.99 2.304 2.285 2.304h6.86c1.294 0 2.284-.998 2.284-2.304v-8.22C63.162 46.33 64 45.254 64 43.872v-9.217c0-2.842-1.295-5.377-3.276-7.067zm-1.295-6.76c1.294 0 2.284 1 2.284 2.305 0 1.307-.99 2.305-2.285 2.305h-.763l-1.524-4.608h2.286zm-48.154-6.22c.686-2.152 2.057-3.765 4.114-4.687.762-.308 1.98-.692 2.82-.692h27.428c.838 0 2.057.307 2.82.69 2.056.923 3.428 2.536 4.113 4.687l3.66 10.83H7.77l3.506-10.83zm-8.99 8.525c0-1.305.99-2.303 2.285-2.303h2.287l-1.524 4.608H4.57c-1.294 0-2.284-.998-2.284-2.304zm9.143 32.263H4.57v-7.22c1.906.69 4.268 1.228 6.86 1.536v5.683zm48 0h-6.86v-5.608c2.592-.384 4.954-.845 6.86-1.536v7.143zm2.284-11.522v.154c-.38 1.153-3.504 2.15-4.495 2.458-3.43.922-7.39 1.383-10.972 1.614-4.8.307-9.524.384-14.248.384s-9.448-.077-14.17-.384c-3.582-.23-7.544-.615-10.973-1.614-.99-.307-4.19-1.305-4.495-2.458V34.654c0-3.84 3.048-6.913 6.857-6.913H54.932c3.81 0 6.857 3.072 6.857 6.913v9.218h-.076zm-6.857-11.52c-2.514 0-4.57 2.073-4.57 4.607 0 2.535 2.056 4.61 4.57 4.61 2.514 0 4.572-2.075 4.572-4.61 0-2.534-2.06-4.608-4.573-4.608zm0 6.912c-1.295 0-2.286-1-2.286-2.305 0-1.305.992-2.304 2.287-2.304s2.286 1 2.286 2.304c0 1.306-.99 2.305-2.286 2.305zM9.143 32.35c-2.514 0-4.572 2.073-4.572 4.607 0 2.535 2.06 4.61 4.573 4.61 2.514 0 4.57-2.075 4.57-4.61 0-2.534-2.056-4.608-4.57-4.608zm0 6.912c-1.295 0-2.286-1-2.286-2.305 0-1.305.99-2.304 2.286-2.304 1.295 0 2.286 1 2.286 2.304 0 1.306-.992 2.305-2.287 2.305zm33.143 0H21.714c-.61 0-1.143.538-1.143 1.152 0 .615.535 1.152 1.144 1.152h20.572c.61 0 1.143-.537 1.143-1.152 0-.614-.535-1.152-1.144-1.152zm2.285-4.61H19.43c-.61 0-1.144.54-1.144 1.153 0 .615.533 1.152 1.143 1.152h25.14c.61 0 1.144-.537 1.144-1.152 0-.614-.533-1.152-1.143-1.152z" fill="#999"/></svg>