<svg width="64" height="64" viewBox="0 0 64 64" xmlns="http://www.w3.org/2000/svg"><g fill="none"><path d="M39.08 37.225s.812 10.59 2.638 13.91c3.387 6.158 7.844 5.712 8.425 7.436.517-1.723 5.04-1.277 8.426-7.436 1.824-3.32 2.637-13.91 2.637-13.91-6.98 1.72-11.064-6.01-11.064-6.01s-4.083 7.73-11.063 6.01zM45.093 43.2h9.917M46.596 48.443h7.357" stroke="#999" stroke-width="3"/><path d="M39.47 49.18c-3.425 1.75-7.308 2.74-11.424 2.74C14.214 51.92 3 40.747 3 26.96 3 13.176 14.214 2 28.046 2 41.88 2 53.092 13.176 53.092 26.96c0 2.667-.42 5.236-1.197 7.646" stroke="#999" stroke-width="3"/><path d="M26.158 44.9v-4.354c-2.51-.045-5.105-.82-6.622-1.897l1.04-2.894c1.557 1.036 3.807 1.856 6.23 1.856 3.073 0 5.152-1.77 5.152-4.227 0-2.37-1.688-3.838-4.892-5.13-4.415-1.73-7.14-3.712-7.14-7.466 0-3.577 2.554-6.296 6.535-6.943V9.49h2.684v4.184c2.598.087 4.372.778 5.626 1.51l-1.084 2.846c-.906-.517-2.68-1.466-5.452-1.466-3.33 0-4.587 1.985-4.587 3.71 0 2.24 1.602 3.36 5.366 4.916 4.457 1.812 6.707 4.052 6.707 7.892 0 3.406-2.38 6.596-6.836 7.332V44.9h-2.726z" fill="#999"/></g></svg>