<svg width="16" height="16" viewBox="0 0 16 16" xmlns="http://www.w3.org/2000/svg"><title>info</title><g fill="none" fill-rule="evenodd"><path d="M10.333 12.375v-1.458c0-.085-.027-.155-.082-.21-.053-.055-.123-.082-.208-.082h-.875V5.958c0-.085-.028-.155-.082-.21-.055-.054-.125-.08-.21-.08H5.958c-.085 0-.155.026-.21.08-.054.055-.08.125-.08.21v1.46c0 .084.026.154.08.208.055.055.125.082.21.082h.875v2.917h-.875c-.085 0-.155.027-.21.082-.054.055-.08.125-.08.21v1.458c0 .085.026.155.08.21.055.054.125.082.21.082h4.084c.085 0 .155-.028.21-.082.054-.055.08-.125.08-.21zM9.167 4.208V2.75c0-.085-.028-.155-.082-.21-.055-.054-.125-.082-.21-.082h-1.75c-.085 0-.155.028-.21.082-.054.055-.082.125-.082.21v1.458c0 .085.028.155.082.21.055.055.125.082.21.082h1.75c.085 0 .155-.027.21-.082.054-.055.082-.125.082-.21zM15 8c0 1.27-.313 2.44-.94 3.514-.625 1.072-1.474 1.92-2.546 2.547C10.44 14.688 9.27 15 8 15c-1.27 0-2.44-.313-3.514-.94-1.072-.625-1.92-1.474-2.547-2.546C1.312 10.44 1 9.27 1 8c0-1.27.313-2.44.94-3.514.625-1.072 1.474-1.92 2.546-2.547C5.56 1.312 6.73 1 8 1c1.27 0 2.44.313 3.514.94 1.072.625 1.92 1.474 2.547 2.546C14.688 5.56 15 6.73 15 8z" fill="#C4CED1"/><path d="M0 0h16v16H0z"/></g></svg>