<svg width="20" height="20" viewBox="0 0 20 20" xmlns="http://www.w3.org/2000/svg"><title>Page 1</title><path d="M8.093 0c2.23 0 4.138.79 5.72 2.374 1.583 1.582 2.374 3.488 2.374 5.72 0 1.893-.597 3.592-1.79 5.097l5.33 5.33c.182.157.273.358.273.605 0 .246-.084.453-.253.622-.17.17-.376.253-.622.253-.247 0-.448-.09-.604-.272l-5.33-5.33c-1.504 1.192-3.203 1.79-5.097 1.79-2.23 0-4.137-.792-5.72-2.375C.792 12.23 0 10.323 0 8.093c0-2.23.79-4.137 2.374-5.72C3.956.792 5.864 0 8.094 0zm0 14.942c1.894 0 3.51-.668 4.845-2.004 1.336-1.336 2.004-2.95 2.004-4.845 0-1.893-.668-3.508-2.004-4.844-1.336-1.337-2.95-2.005-4.845-2.005-1.893 0-3.508.668-4.844 2.004C1.912 4.584 1.244 6.2 1.244 8.092c0 1.894.668 3.51 2.004 4.845 1.335 1.336 2.95 2.004 4.843 2.004z" fill="#999" fill-rule="evenodd"/></svg>