<svg width="20" height="20" viewBox="0 0 20 20" xmlns="http://www.w3.org/2000/svg"><title>l-print</title><g fill="#CA0018" fill-rule="evenodd"><path d="M18.5 4H17V1.5c0-.827-.673-1.5-1.5-1.5h-11C3.673 0 3 .673 3 1.5V4H1.5C.673 4 0 4.673 0 5.5v9c0 .827.673 1.5 1.5 1.5H3v2.5c0 .827.673 1.5 1.5 1.5h11c.827 0 1.5-.673 1.5-1.5V16h1.5c.827 0 1.5-.673 1.5-1.5v-9c0-.827-.673-1.5-1.5-1.5zM4 1.5c0-.276.224-.5.5-.5h11c.276 0 .5.224.5.5V4H4V1.5zM15.5 19h-11c-.276 0-.5-.224-.5-.5V12h12v6.5c0 .276-.224.5-.5.5zm3.5-4.5c0 .276-.224.5-.5.5H17v-3h.5c.276 0 .5-.224.5-.5s-.224-.5-.5-.5h-15c-.276 0-.5.224-.5.5s.224.5.5.5H3v3H1.5c-.276 0-.5-.224-.5-.5v-9c0-.276.224-.5.5-.5h17c.276 0 .5.224.5.5v9z"/><path d="M14.5 14h-9c-.276 0-.5-.224-.5-.5s.224-.5.5-.5h9c.276 0 .5.224.5.5s-.224.5-.5.5zM14.5 16h-9c-.276 0-.5-.224-.5-.5s.224-.5.5-.5h9c.276 0 .5.224.5.5s-.224.5-.5.5zM14.5 18h-9c-.276 0-.5-.224-.5-.5s.224-.5.5-.5h9c.276 0 .5.224.5.5s-.224.5-.5.5zM16.5 9c-.827 0-1.5-.673-1.5-1.5S15.673 6 16.5 6s1.5.673 1.5 1.5S17.327 9 16.5 9zm0-2c-.276 0-.5.224-.5.5s.224.5.5.5.5-.224.5-.5-.224-.5-.5-.5z"/></g></svg>