<svg width="20" height="20" viewBox="0 0 20 20" xmlns="http://www.w3.org/2000/svg"><path d="M9.05 4.985c-1.478.468-2.656 1.168-3.532 2.103-.876.934-1.216 2.14-1.022 3.62.832 0 2.948 0 3.854 1.927.156.623.156 1.226 0 1.81-.155.584-.408 1.1-.76 1.548-.35.447-.758.817-1.225 1.11-.467.29-1.322.435-1.712.474-1.362-.117-2.087-.42-3.1-1.315C.54 15.366 0 13.9 0 12.226c0-.973.274-3.378 1.985-5.635C3.697 4.335 6.715 3.274 8.117 3l.934 1.985zm10.95 0c-1.48.468-2.657 1.168-3.533 2.103-.876.934-1.216 2.14-1.022 3.62.832 0 2.947 0 3.854 1.927.155.623.155 1.226 0 1.81-.156.584-.41 1.1-.76 1.548-.35.447-.76.817-1.226 1.11-.467.29-1.323.435-1.712.474-1.362-.117-2.088-.42-3.1-1.315-1.012-.896-1.553-2.362-1.553-4.036 0-.973.273-3.378 1.984-5.635 1.712-2.256 4.73-3.317 6.132-3.59L20 4.985z" fill="#333"/></svg>