<svg width="16" height="16" viewBox="0 0 16 16" xmlns="http://www.w3.org/2000/svg"><title>Info</title><path d="M10.667 13v-1.667c0-.097-.032-.177-.094-.24-.063-.062-.142-.093-.24-.093h-1V5.667c0-.098-.03-.177-.093-.24-.063-.062-.143-.094-.24-.094H5.667c-.098 0-.177.032-.24.094-.062.063-.094.142-.094.24v1.666c0 .098.032.177.094.24.063.062.142.094.24.094h1V11h-1c-.098 0-.177.03-.24.094-.062.062-.094.142-.094.24V13c0 .097.032.177.094.24.063.062.142.093.24.093h4.666c.098 0 .177-.03.24-.093.062-.063.094-.143.094-.24zM9.333 3.667V2c0-.097-.03-.177-.093-.24-.063-.062-.143-.093-.24-.093H7c-.097 0-.177.03-.24.093-.062.063-.093.143-.093.24v1.667c0 .097.03.177.093.24.063.062.143.093.24.093h2c.097 0 .177-.03.24-.094.062-.062.093-.142.093-.24zM16 8c0 1.45-.358 2.79-1.073 4.016-.715 1.225-1.686 2.196-2.91 2.91C10.79 15.643 9.45 16 8 16c-1.45 0-2.79-.358-4.016-1.073-1.225-.715-2.196-1.686-2.91-2.91C.357 10.79 0 9.45 0 8c0-1.45.358-2.79 1.073-4.016.715-1.225 1.686-2.196 2.91-2.91C5.21.357 6.55 0 8 0c1.45 0 2.79.358 4.016 1.073 1.225.715 2.196 1.686 2.91 2.91C15.643 5.21 16 6.55 16 8z" fill="#BDBDBD" fill-rule="evenodd"/></svg>