<svg width="16" height="16" viewBox="0 0 16 16" xmlns="http://www.w3.org/2000/svg"><title>magnifying_glass_black_small</title><g fill="none" fill-rule="evenodd"><path d="M10.507 9.093l5.2 5.2c.39.39.39 1.024 0 1.414-.39.39-1.024.39-1.414 0l-5.2-5.2c-.39-.39-.39-1.024 0-1.414.39-.39 1.024-.39 1.414 0z" fill="#323536"/><path d="M6 10c-2.21 0-4-1.79-4-4s1.79-4 4-4 4 1.79 4 4-1.79 4-4 4zm0 2c3.314 0 6-2.686 6-6S9.314 0 6 0 0 2.686 0 6s2.686 6 6 6z" fill="#323536"/><path d="M16 0H0v16h16z"/></g></svg>