<svg width="12" height="15" viewBox="0 0 12 15" xmlns="http://www.w3.org/2000/svg"><title>pdf</title><g fill="#B60B19" fill-rule="evenodd"><path d="M11.95 3.417c0-.017 0-.017-.017-.034-.016-.033-.033-.066-.05-.083L8.667.083 8.633.05C8.617.033 8.6.033 8.583.033c-.016 0-.016-.016-.033-.016C8.517 0 8.5 0 8.467 0h-8.2C.117 0 0 .117 0 .267v14.466c0 .15.117.267.267.267H11.7c.15 0 .267-.117.267-.267V3.483c0-.016 0-.033-.017-.066zM8.733.9l2.317 2.317H8.733V.9zm2.7 13.567H.533V.533H8.2V3.5c0 .15.117.267.267.267h2.966v10.7z"/><path d="M8.6 8.85c-.117-.217-.35-.317-.75-.317-.2 0-.433.017-.683.067-.367-.4-.75-.967-1.034-1.533.3-1.25.084-1.534 0-1.634-.1-.116-.233-.183-.383-.183-.067 0-.117.017-.183.033-.167.05-.284.167-.35.334-.134.316-.05.833.266 1.516-.183.717-.483 1.55-.8 2.25-.866.4-1.3.784-1.35 1.2-.016.134 0 .384.3.617.084.067.184.1.284.1.233 0 .466-.167.716-.517.167-.233.334-.533.517-.916.55-.234 1.217-.45 1.8-.584.35.334.683.484.967.484.233 0 .45-.117.583-.317.2-.267.167-.467.1-.6zM3.917 10.8c-.1-.083-.1-.133-.1-.15.016-.117.2-.333.666-.6-.35.65-.533.733-.566.75zm1.75-4.983c.016-.034.033-.05.05-.05h.016c.034.05.067.25 0 .716-.083-.283-.133-.533-.066-.666zm-.4 3.466c.216-.533.433-1.116.583-1.666.25.45.55.866.833 1.216-.466.117-.966.267-1.416.45zM8.1 9.167c-.067.1-.133.1-.183.1-.117 0-.284-.084-.45-.217.15-.017.283-.033.383-.033.2 0 .267.033.3.05-.017.033-.017.066-.05.1z"/></g></svg>