<svg width="16" height="16" viewBox="0 0 16 16" xmlns="http://www.w3.org/2000/svg"><title>pen</title><path d="M15.283.717C14.833.267 14.236.02 13.6.02c-.636 0-1.234.247-1.683.697l-10.2 10.2c-.042.04-.073.09-.093.146l-1.6 4.4c-.053.147-.017.31.093.42.076.075.178.116.283.116.046 0 .092-.01.137-.025l4.4-1.6c.055-.02.105-.052.146-.093l10.2-10.2c.45-.45.697-1.047.697-1.683 0-.637-.247-1.234-.697-1.684zM4.58 13.654L1.07 14.93l1.276-3.51L11.2 2.566 13.434 4.8 4.58 13.654zM14.717 3.517L14 4.234 11.766 2l.716-.718c.3-.298.696-.462 1.117-.462.42 0 .818.164 1.116.462.298.3.462.696.462 1.117 0 .42-.164.818-.462 1.116z" fill="#000" fill-rule="evenodd"/></svg>