<svg width="16" height="16" viewBox="0 0 16 16" xmlns="http://www.w3.org/2000/svg"><title>Page 1</title><path d="M15.393 13.098c-.07.31-.145.552-.223.73-.15.355-.583.73-1.3 1.13-.668.36-1.328.542-1.982.542-.19 0-.378-.012-.56-.037-.18-.025-.384-.07-.61-.133-.23-.064-.397-.116-.507-.155-.11-.04-.307-.112-.59-.218-.285-.107-.46-.17-.523-.192-.696-.25-1.317-.543-1.864-.884-.91-.56-1.848-1.326-2.818-2.295-.97-.97-1.735-1.91-2.296-2.818-.342-.547-.636-1.168-.885-1.864-.02-.064-.085-.238-.192-.522-.106-.283-.18-.48-.218-.59-.04-.11-.09-.28-.155-.507-.063-.227-.108-.43-.133-.612C.512 4.49.5 4.304.5 4.113c0-.654.18-1.314.543-1.982.398-.717.774-1.15 1.13-1.3.177-.078.42-.152.73-.223.308-.07.56-.107.75-.107.1 0 .174.01.224.032.128.043.316.312.565.81.078.135.184.326.32.575.134.248.26.474.372.676.114.203.224.393.33.57.022.03.084.118.187.267.104.15.18.275.23.378.05.103.075.204.075.304 0 .142-.102.32-.304.532-.2.213-.422.41-.66.586-.238.178-.458.366-.66.565-.203.2-.304.362-.304.49 0 .064.018.144.054.24.035.095.065.168.09.218.025.05.075.135.15.256l.122.2c.54.974 1.157 1.81 1.853 2.505.696.696 1.53 1.313 2.504 1.853.013.007.08.048.2.123.122.075.207.125.257.15.05.025.123.055.218.09.096.036.176.054.24.054.128 0 .29-.1.49-.304.2-.202.387-.422.565-.66.177-.238.373-.46.586-.66.213-.203.39-.305.532-.305.1 0 .2.025.304.075.103.05.23.126.378.23.15.102.238.164.267.186.177.106.367.216.57.33.202.113.428.238.676.373.25.134.44.24.575.318.498.25.767.437.81.565.02.05.032.124.032.224 0 .19-.036.442-.107.75z" stroke="#333" fill="none" fill-rule="evenodd"/></svg>