<svg width="16" height="16" viewBox="0 0 16 16" xmlns="http://www.w3.org/2000/svg"><g fill="#888"><path d="M12.8 1.6H10v-.4C10 .538 9.462 0 8.8 0H7.2C6.538 0 6 .538 6 1.2v.4H3.2c-.662 0-1.2.538-1.2 1.2v.8c0 .522.334.966.8 1.13V14.8c0 .662.538 1.2 1.2 1.2h8c.662 0 1.2-.538 1.2-1.2V4.73c.466-.164.8-.608.8-1.13v-.8c0-.662-.538-1.2-1.2-1.2zm-6-.4c0-.22.18-.4.4-.4h1.6c.22 0 .4.18.4.4v.4H6.8v-.4zm5.2 14H4c-.22 0-.4-.18-.4-.4v-10h8.8v10c0 .22-.18.4-.4.4zm1.2-11.6c0 .22-.18.4-.4.4H3.2c-.22 0-.4-.18-.4-.4v-.8c0-.22.18-.4.4-.4h9.6c.22 0 .4.18.4.4v.8z"/><path d="M9.9 6c-.22 0-.4.18-.4.4v8c0 .22.18.4.4.4.22 0 .4-.18.4-.4v-8c0-.22-.18-.4-.4-.4zM7.9 6c-.22 0-.4.18-.4.4v8c0 .22.18.4.4.4.22 0 .4-.18.4-.4v-8c0-.22-.18-.4-.4-.4zM5.9 6c-.22 0-.4.18-.4.4v8c0 .22.18.4.4.4.22 0 .4-.18.4-.4v-8c0-.22-.18-.4-.4-.4z"/></g></svg>