<svg id="ambulance" xmlns="http://www.w3.org/2000/svg" viewBox="0 0 24 24"><defs><style>.cls-1,.cls-2,.cls-3,.cls-4{fill:none;}.cls-2{stroke:#231f20;}.cls-2,.cls-3,.cls-4{stroke-miterlimit:10;}.cls-3,.cls-4{stroke:#000;}.cls-4{stroke-linecap:round;}</style></defs><title>FINAL Sympany Collections</title><path class="cls-1" d="M0 0h24v24H0z"/><circle class="cls-2" cx="6" cy="16" r="1"/><circle class="cls-2" cx="18" cy="16" r="1"/><rect class="cls-2" x="2.5" y="12.5" width="19" height="7" rx="1" ry="1"/><path class="cls-2" d="M16.5 19.5h3v1a1 1 0 0 1-1 1h-1a1 1 0 0 1-1-1v-1zM4.5 19.5h3v1a1 1 0 0 1-1 1h-1a1 1 0 0 1-1-1v-1z"/><path class="cls-3" d="M18.5 5.5h-3v-2a1 1 0 0 0-1-1h-5a1 1 0 0 0-1 1v2h-3a1 1 0 0 0-1 1v6h15v-6a1 1 0 0 0-1-1z"/><rect class="cls-3" x="8.5" y="2.5" width="7" height="7" rx="1" ry="1"/><path class="cls-4" d="M12 4.5v3M10.5 6h3"/></svg>