<svg id="baby" xmlns="http://www.w3.org/2000/svg" viewBox="0 0 24 24"><defs><style>.cls-1,.cls-2,.cls-3{fill:none;}.cls-2,.cls-3{stroke:#000;stroke-miterlimit:10;}.cls-2{stroke-linecap:round;}</style></defs><title>FINAL Sympany Collections</title><path class="cls-1" d="M0 0h24v24H0z"/><path class="cls-2" d="M11.5 1.5a1 1 0 0 0 0 2M13.5 2a1 1 0 0 0-1 1"/><circle cx="11" cy="7.5" r=".5"/><circle cx="13" cy="7.5" r=".5"/><path class="cls-3" d="M6.5 11l6 4M17.5 10l-10 10M16.5 8.5h-.64a4 4 0 1 0-7.72 0H7.5a1 1 0 0 0-1 1v7a5.5 5.5 0 0 0 11 0v-7a1 1 0 0 0-1-1z"/><circle class="cls-3" cx="12" cy="7.5" r="4"/></svg>