<svg id="bowl" xmlns="http://www.w3.org/2000/svg" viewBox="0 0 24 24"><defs><style>.cls-1,.cls-2,.cls-3{fill:none;}.cls-2{stroke:#231f20;}.cls-2,.cls-3{stroke-linecap:round;stroke-miterlimit:10;}.cls-3{stroke:#000;}</style></defs><title>FINAL Sympany Collections</title><path class="cls-1" d="M0 0h24v24H0z"/><path class="cls-2" d="M18.5 8.5h-3.41l3.59-3.59a1.12 1.12 0 0 0-1.59-1.59L11.91 8.5H5.5a1 1 0 0 0-1 1v3a6 6 0 0 0 6 6h3a6 6 0 0 0 6-6v-3a1 1 0 0 0-1-1z"/><path class="cls-2" d="M5.5 8.5h13a1 1 0 0 1 1 1v3a6 6 0 0 1-6 6h-3a6 6 0 0 1-6-6v-3a1 1 0 0 1 1-1z"/><path class="cls-3" d="M12 12v3M10.5 13.5h3"/><path class="cls-2" d="M8.5 18.5h7v2a1 1 0 0 1-1 1h-5a1 1 0 0 1-1-1v-2z"/></svg>