<svg id="bone" xmlns="http://www.w3.org/2000/svg" viewBox="0 0 24 24"><defs><style>.cls-1,.cls-2{fill:none;}.cls-2{stroke:#020202;stroke-miterlimit:10;}</style></defs><title>FINAL Sympany Collections</title><path class="cls-1" d="M0 0h24v24H0z"/><path class="cls-2" d="M6.67 13.45a2.74 2.74 0 1 0-.76 4.41l.23.23a2.74 2.74 0 1 0 4.41-.76l1.76-1.76-2.41-5.35zM17.33 10.55a2.83 2.83 0 0 0 3.87 0 2.74 2.74 0 0 0-3.11-4.41l-.23-.23a2.74 2.74 0 0 0-4.41-3.11 2.83 2.83 0 0 0 0 3.87l-1.76 1.76 2.4 5.34z"/></svg>