<svg id="document" xmlns="http://www.w3.org/2000/svg" viewBox="0 0 64 64"><defs><style>.cls-1,.cls-2,.cls-3{fill:none;}.cls-1,.cls-2{stroke:#231f20;stroke-miterlimit:10;stroke-width:2px;}.cls-2{stroke-linecap:round;}</style></defs><title>FINAL Sympany Icons General</title><path class="cls-1" d="M42.41 8.41A5.56 5.56 0 0 0 39 7H13a2 2 0 0 0-2 2v46a2 2 0 0 0 2 2h38a2 2 0 0 0 2-2V21a5.56 5.56 0 0 0-1.41-3.41z"/><path class="cls-1" d="M42.41 8.41C41.64 7.64 41 7.9 41 9v8a2 2 0 0 0 2 2h8c1.1 0 1.36-.64.59-1.41z"/><path class="cls-2" d="M17 47h30M17 39h30M17 31h30"/><path class="cls-3" d="M0 0h64v64H0z"/></svg>