<svg id="garage" xmlns="http://www.w3.org/2000/svg" viewBox="0 0 64 64"><defs><style>.cls-1,.cls-2,.cls-3,.cls-4{fill:none;}.cls-1,.cls-2,.cls-3{stroke:#231f20;stroke-width:2px;}.cls-1,.cls-2{stroke-miterlimit:10;}.cls-2,.cls-3{stroke-linecap:round;}.cls-3{stroke-linejoin:round;}</style></defs><title>FINAL Sympany Icons General</title><path class="cls-1" d="M57.75 18.44c.69.86.35 1.56-.75 1.56H7c-1.1 0-1.44-.7-.75-1.56L15 7.57A4.73 4.73 0 0 1 18.2 6h27.59A4.73 4.73 0 0 1 49 7.56z"/><rect class="cls-1" x="17" y="38" width="30" height="10" rx="2" ry="2"/><path class="cls-1" d="M39.5 48h5v2a2 2 0 0 1-2 2h-1a2 2 0 0 1-2-2v-2zM19.5 48h5v2a2 2 0 0 1-2 2h-1a2 2 0 0 1-2-2v-2zM22 26h20a2 2 0 0 1 2 2v10H20V28a2 2 0 0 1 2-2z"/><path class="cls-2" d="M9 20h46v36a2 2 0 0 1-2 2H11a2 2 0 0 1-2-2V20z"/><path class="cls-3" d="M21 43h4M39 43h4"/><path class="cls-4" d="M0 0h64v64H0z"/></svg>