<svg id="hospital" xmlns="http://www.w3.org/2000/svg" viewBox="0 0 24 24"><defs><style>.cls-1,.cls-2,.cls-3{fill:none;}.cls-2,.cls-3{stroke:#000;stroke-miterlimit:10;}.cls-3{stroke-linecap:round;}</style></defs><title>FINAL Sympany Collections</title><path class="cls-1" d="M0 0h24v24H0z"/><path class="cls-2" d="M19.5 4.5h-4v-1a1 1 0 0 0-1-1h-5a1 1 0 0 0-1 1v1h-4a1 1 0 0 0-1 1v15a1 1 0 0 0 1 1h15a1 1 0 0 0 1-1v-15a1 1 0 0 0-1-1z"/><path class="cls-3" d="M12 4.5v3M10.5 6h3"/><rect class="cls-2" x="8.5" y="2.5" width="7" height="7" rx="1" ry="1"/><path class="cls-2" d="M10.5 13.5h3a1 1 0 0 1 1 1v7h-5v-7a1 1 0 0 1 1-1z"/></svg>