<svg id="pencil" xmlns="http://www.w3.org/2000/svg" viewBox="0 0 64 64"><defs><style>.cls-1,.cls-2,.cls-3{fill:none;}.cls-1,.cls-2{stroke:#231f20;stroke-miterlimit:10;stroke-width:2px;}.cls-1{stroke-linecap:round;}</style></defs><title>FINAL Sympany Icons General</title><circle class="cls-1" cx="32" cy="32" r="26"/><path class="cls-2" d="M26.62 43.18a10.76 10.76 0 0 0 3.29-2.1l15.18-15.17a2 2 0 0 0 0-2.83l-4.17-4.17a2 2 0 0 0-2.83 0L22.91 34.09a10.76 10.76 0 0 0-2.1 3.29l-2.63 7.24c-.38 1 .16 1.57 1.2 1.2zM21.5 35.5l7 7M19.5 41l3 3"/><path class="cls-3" d="M0 0h64v64H0z"/></svg>