<svg id="pharmacy" xmlns="http://www.w3.org/2000/svg" viewBox="0 0 24 24"><defs><style>.cls-1,.cls-2,.cls-3{fill:none;}.cls-2,.cls-3{stroke:#231f20;stroke-miterlimit:10;}.cls-3{stroke-linecap:round;}</style></defs><title>FINAL Sympany Collections</title><path class="cls-1" d="M0 0h24v24H0z"/><circle class="cls-2" cx="12" cy="3.5" r="1.5"/><path class="cls-3" d="M12 5v17M13.23 9.5a2.71 2.71 0 0 1 1.27 2.33A2.59 2.59 0 0 1 12 14.5a2.59 2.59 0 0 1-2.5-2.67 2.71 2.71 0 0 1 1.25-2.31M13.23 14.5a2.71 2.71 0 0 1 1.27 2.33A2.59 2.59 0 0 1 12 19.5a2.59 2.59 0 0 1-2.5-2.67 2.71 2.71 0 0 1 1.25-2.31"/><path class="cls-2" d="M17.89 6.29L15 7.65a1.05 1.05 0 0 1-1.41-.52 1.08 1.08 0 0 1 .51-1.42L17 4.35a1.05 1.05 0 0 1 1.41.52 1.08 1.08 0 0 1-.52 1.42zM6.11 6.29L9 7.65a1.05 1.05 0 0 0 1.41-.52 1.08 1.08 0 0 0-.51-1.42L7 4.35a1.05 1.05 0 0 0-1.41.52 1.08 1.08 0 0 0 .52 1.42z"/></svg>