<svg id="phone" xmlns="http://www.w3.org/2000/svg" viewBox="0 0 64 64"><defs><style>.cls-1,.cls-2,.cls-3{fill:none;}.cls-1{stroke:#231f20;stroke-linecap:round;}.cls-1,.cls-2{stroke-miterlimit:10;stroke-width:2px;}.cls-2{stroke:#000;}</style></defs><title>FINAL Sympany Icons General</title><circle class="cls-1" cx="32" cy="32" r="26"/><path class="cls-2" d="M43.59 44a1.36 1.36 0 0 0 0-2l-3.89-4.51a1.78 1.78 0 0 0-2.33-.24 22.08 22.08 0 0 1-2 1.54c-1.36 1-2.78-1.31-2.78-1.31s-4.84-7.39-5.25-8c-.92-1.8-.39-2.48-.39-2.48.29-.67 2.13-1.2 3-1.77a1.68 1.68 0 0 0 .69-2.18l-2.74-5.21a1.43 1.43 0 0 0-1.84-.77 15.67 15.67 0 0 0-3.39 1.87c-2.06 1.4-3.28 3.31-2.35 7.66 1 4.51 4.84 10.2 4.84 10.2s3.88 5.7 7.77 8.32a10.79 10.79 0 0 0 3.85 1.77 5.76 5.76 0 0 0 1.12.11c1.27 0 5.1-2.21 5.69-3z"/><path class="cls-3" d="M0 0h64v64H0z"/></svg>