<svg id="tooth-repair" xmlns="http://www.w3.org/2000/svg" viewBox="0 0 24 24"><defs><style>.cls-1,.cls-2{fill:none;}.cls-2{stroke:#020202;stroke-linecap:round;stroke-miterlimit:10;}</style></defs><title>FINAL Sympany Collections</title><path class="cls-1" d="M0 0h24v24H0z"/><rect class="cls-2" x="5.5" y="11.5" width="13" height="2" rx="1" ry="1"/><rect class="cls-2" x="6.5" y="15.5" width="11" height="2" rx="1" ry="1"/><rect class="cls-2" x="7.5" y="19.5" width="9" height="2" rx="1" ry="1"/><path class="cls-2" d="M6.5 3h11a3 3 0 0 1 3 3v2a1 1 0 0 1-1 1h-15a1 1 0 0 1-1-1V6a3 3 0 0 1 3-3z"/><path class="cls-2" d="M9 5.5a4.14 4.14 0 0 0 3 1 4.26 4.26 0 0 0 3-1"/></svg>