<svg id="tooth" xmlns="http://www.w3.org/2000/svg" viewBox="0 0 24 24"><defs><style>.cls-1,.cls-2,.cls-3{fill:none;}.cls-2,.cls-3{stroke:#020202;stroke-miterlimit:10;}.cls-2{stroke-linecap:round;}</style></defs><title>FINAL Sympany Collections</title><path class="cls-1" d="M0 0h24v24H0z"/><path class="cls-2" d="M9 5.5a4.14 4.14 0 0 0 3 1 4.26 4.26 0 0 0 3-1"/><path class="cls-3" d="M3 7l1.5 11.05a2.92 2.92 0 0 0 3 2.95 3.13 3.13 0 0 0 3-3.19l.5-4.71a1 1 0 0 1 1-1.1 1 1 0 0 1 1 1l.5 4.66a3 3 0 1 0 6 0L21 7a4 4 0 0 0-4-4H7a4 4 0 0 0-4 4z"/></svg>