<?xml version="1.0" encoding="UTF-8" standalone="no"?>
<svg
   xmlns:dc="http://purl.org/dc/elements/1.1/"
   xmlns:cc="http://creativecommons.org/ns#"
   xmlns:rdf="http://www.w3.org/1999/02/22-rdf-syntax-ns#"
   xmlns:svg="http://www.w3.org/2000/svg"
   xmlns="http://www.w3.org/2000/svg"
   viewBox="0 0 3200 1066.6667"
   height="1066.6667"
   width="3200"
   xml:space="preserve"
   id="svg2"
   version="1.1"><metadata
     id="metadata8"><rdf:RDF><cc:Work
         rdf:about=""><dc:format>image/svg+xml</dc:format><dc:type
           rdf:resource="http://purl.org/dc/dcmitype/StillImage" /></cc:Work></rdf:RDF></metadata><defs
     id="defs6"><clipPath
       id="clipPath18"
       clipPathUnits="userSpaceOnUse"><path
         id="path16"
         d="M 0,0 H 2400 V 800 H 0 Z" /></clipPath><clipPath
       id="clipPath30"
       clipPathUnits="userSpaceOnUse"><path
         id="path28"
         d="M 422.5,0 H 1626.001 V 800 H 422.5 Z" /></clipPath><clipPath
       id="clipPath42"
       clipPathUnits="userSpaceOnUse"><path
         id="path40"
         d="M 201,302.221 H 777.5 V 800 H 201 Z" /></clipPath><clipPath
       id="clipPath58"
       clipPathUnits="userSpaceOnUse"><path
         id="path56"
         d="M 474.441,584.354 H 703.213 V 355.583 H 474.441 Z" /></clipPath><clipPath
       id="clipPath74"
       clipPathUnits="userSpaceOnUse"><path
         id="path72"
         d="m 1580,0 h 820.001 V 800 H 1580 Z" /></clipPath><clipPath
       id="clipPath90"
       clipPathUnits="userSpaceOnUse"><path
         id="path88"
         d="m 2016,581 h 202 V 379 h -202 z" /></clipPath></defs><g
     transform="matrix(1.3333333,0,0,-1.3333333,0,1066.6667)"
     id="g10"><g
       id="g12"><g
         clip-path="url(#clipPath18)"
         id="g14"><g
           transform="translate(2400)"
           id="g20"><path
             id="path22"
             style="fill:#ca0018;fill-opacity:1;fill-rule:nonzero;stroke:none"
             d="M 0,0 V 800 H -943.335 C -898.699,726.232 -873,639.726 -873,547.213 c 0,-270.067 -218.933,-489 -489,-489 -270.067,0 -489,218.933 -489,489 0,92.513 25.699,179.019 70.335,252.787 H -2400 V 0 Z" /></g></g></g><g
       id="g24"><g
         clip-path="url(#clipPath30)"
         id="g26"><g
           transform="translate(1563.803,526.6611)"
           id="g32"><path
             id="path34"
             style="fill:#b60b19;fill-opacity:1;fill-rule:nonzero;stroke:none"
             d="m 0,0 c 0,191.148 -109.691,356.655 -269.546,437.076 139.645,-86.097 232.743,-240.43 232.743,-416.525 0,-270.067 -218.933,-489 -489,-489 -78.918,0 -153.455,18.721 -219.453,51.924 C -670.736,-462.47 -582.971,-489 -489,-489 -218.933,-489 0,-270.067 0,0" /></g></g></g><g
       id="g36"><g
         clip-path="url(#clipPath42)"
         id="g38"><g
           transform="translate(418.7483,413.2756)"
           id="g44"><path
             id="path46"
             style="fill:#b60b19;fill-opacity:1;fill-rule:nonzero;stroke:none"
             d="m 0,0 c 93.932,0 170.079,76.147 170.079,170.079 0,93.932 -76.147,170.078 -170.079,170.078 -93.932,0 -170.079,-76.146 -170.079,-170.078 C -170.079,76.147 -93.932,0 0,0" /></g><g
           transform="translate(475.4413,356.5827)"
           id="g48"><path
             id="path50"
             style="fill:#d12414;fill-opacity:1;fill-rule:nonzero;stroke:none"
             d="m 0,0 c 31.311,0 56.693,25.382 56.693,56.693 0,31.311 -25.382,56.693 -56.693,56.693 -31.311,0 -56.693,-25.382 -56.693,-56.693 C -56.693,25.382 -31.311,0 0,0" /></g><g
           id="g52"><g
             id="g54" /><g
             id="g66"><g
               style="opacity:0.14999402"
               id="g64"
               clip-path="url(#clipPath58)"><g
                 id="g62"
                 transform="translate(588.827,356.5827)"><path
                   id="path60"
                   style="fill:#ffffff;fill-opacity:1;fill-rule:nonzero;stroke:none"
                   d="m 0,0 c 62.621,0 113.386,50.765 113.386,113.386 0,62.621 -50.765,113.386 -113.386,113.386 -62.621,0 -113.386,-50.765 -113.386,-113.386 C -113.386,50.765 -62.621,0 0,0" /></g></g></g></g></g></g><g
       id="g68"><g
         clip-path="url(#clipPath74)"
         id="g70"><g
           transform="translate(2114,-320)"
           id="g76"><path
             id="path78"
             style="fill:#d12414;fill-opacity:1;fill-rule:nonzero;stroke:none"
             d="M 0,0 C 220.914,0 400,179.086 400,400 400,620.914 220.914,800 0,800 -220.914,800 -400,620.914 -400,400 -400,179.086 -220.914,0 0,0" /></g><g
           transform="translate(2354,150)"
           id="g80"><path
             id="path82"
             style="fill:#b80022;fill-opacity:1;fill-rule:nonzero;stroke:none"
             d="M 0,0 C 138.071,0 250,111.929 250,250 250,388.071 138.071,500 0,500 -138.071,500 -250,388.071 -250,250 -250,111.929 -138.071,0 0,0" /></g><g
           id="g84"><g
             id="g86" /><g
             id="g98"><g
               style="opacity:0.14999402"
               id="g96"
               clip-path="url(#clipPath90)"><g
                 id="g94"
                 transform="translate(2117,380)"><path
                   id="path92"
                   style="fill:#ffffff;fill-opacity:1;fill-rule:nonzero;stroke:none"
                   d="M 0,0 C 55.228,0 100,44.772 100,100 100,155.229 55.228,200 0,200 -55.229,200 -100,155.229 -100,100 -100,44.772 -55.229,0 0,0" /></g></g></g></g></g></g></g></svg>