<?xml version="1.0" encoding="UTF-8" standalone="no"?>
<svg
   xmlns:dc="http://purl.org/dc/elements/1.1/"
   xmlns:cc="http://creativecommons.org/ns#"
   xmlns:rdf="http://www.w3.org/1999/02/22-rdf-syntax-ns#"
   xmlns:svg="http://www.w3.org/2000/svg"
   xmlns="http://www.w3.org/2000/svg"
   viewBox="0 0 3200 1066.6667"
   height="1066.6667"
   width="3200"
   xml:space="preserve"
   id="svg2"
   version="1.1"><metadata
     id="metadata8"><rdf:RDF><cc:Work
         rdf:about=""><dc:format>image/svg+xml</dc:format><dc:type
           rdf:resource="http://purl.org/dc/dcmitype/StillImage" /></cc:Work></rdf:RDF></metadata><defs
     id="defs6"><clipPath
       id="clipPath18"
       clipPathUnits="userSpaceOnUse"><path
         id="path16"
         d="M 0,0 H 2400 V 800 H 0 Z" /></clipPath><clipPath
       id="clipPath30"
       clipPathUnits="userSpaceOnUse"><path
         id="path28"
         d="M 0,0 H 2400 V 800 H 0 Z" /></clipPath><clipPath
       id="clipPath42"
       clipPathUnits="userSpaceOnUse"><path
         id="path40"
         d="M 0,302.221 H 422.5 V 738 H 0 Z" /></clipPath><clipPath
       id="clipPath58"
       clipPathUnits="userSpaceOnUse"><path
         id="path56"
         d="M 226.114,541.221 H 341.5 V 425.835 H 226.114 Z" /></clipPath><clipPath
       id="clipPath74"
       clipPathUnits="userSpaceOnUse"><path
         id="path72"
         d="m 1580,0 h 820.001 V 800 H 1580 Z" /></clipPath><clipPath
       id="clipPath90"
       clipPathUnits="userSpaceOnUse"><path
         id="path88"
         d="m 2003,307.11 h 202 v -202 h -202 z" /></clipPath></defs><g
     transform="matrix(1.3333333,0,0,-1.3333333,0,1066.6667)"
     id="g10"><g
       id="g12"><g
         clip-path="url(#clipPath18)"
         id="g14"><g
           transform="translate(2400)"
           id="g20"><path
             id="path22"
             style="fill:#ca0018;fill-opacity:1;fill-rule:nonzero;stroke:none"
             d="M 0,0 V 800 H -883.423 C -846.561,719.623 -826,630.214 -826,536 -826,310.427 -943.811,112.377 -1121.254,0 Z M -2036.577,800 H -2400 V 0 h 601.254 C -1976.189,112.377 -2094,310.427 -2094,536 c 0,94.214 20.561,183.623 57.423,264" /></g></g></g><g
       id="g24"><g
         clip-path="url(#clipPath30)"
         id="g26"><g
           transform="translate(370.8447,256.3828)"
           id="g32"><path
             id="path34"
             style="fill:#d12414;fill-opacity:1;fill-rule:nonzero;stroke:none"
             d="m 0,0 c 94.514,-231.358 321.796,-394.383 587.155,-394.383 350.149,0 634,283.852 634,634 0,100.362 -23.328,195.272 -64.844,279.617 1.84,-4.505 3.626,-9.039 5.366,-13.594 0.06,-0.161 0.124,-0.319 0.184,-0.478 1.685,-4.425 3.316,-8.875 4.903,-13.346 0.107,-0.3 0.217,-0.598 0.324,-0.899 1.542,-4.366 3.033,-8.756 4.482,-13.164 0.135,-0.412 0.274,-0.822 0.409,-1.234 1.412,-4.325 2.772,-8.672 4.093,-13.037 0.152,-0.504 0.309,-1.007 0.46,-1.512 1.29,-4.304 2.531,-8.629 3.732,-12.971 0.158,-0.569 0.318,-1.138 0.474,-1.708 1.177,-4.303 2.306,-8.626 3.394,-12.965 0.154,-0.612 0.309,-1.223 0.461,-1.837 1.068,-4.317 2.091,-8.653 3.071,-13.006 0.144,-0.639 0.288,-1.28 0.431,-1.921 0.963,-4.341 1.881,-8.699 2.754,-13.073 0.132,-0.659 0.263,-1.318 0.392,-1.977 0.859,-4.375 1.674,-8.765 2.443,-13.172 0.115,-0.659 0.228,-1.32 0.341,-1.981 0.757,-4.423 1.471,-8.862 2.136,-13.316 0.096,-0.643 0.189,-1.286 0.283,-1.929 0.656,-4.487 1.268,-8.988 1.83,-13.506 0.075,-0.605 0.146,-1.212 0.219,-1.819 0.554,-4.565 1.065,-9.143 1.521,-13.738 0.055,-0.555 0.105,-1.111 0.159,-1.665 0.45,-4.66 0.857,-9.333 1.206,-14.022 0.035,-0.474 0.065,-0.949 0.099,-1.424 0.345,-4.78 0.644,-9.573 0.883,-14.382 0.018,-0.361 0.03,-0.723 0.048,-1.084 0.236,-4.93 0.423,-9.873 0.546,-14.832 0.01,-0.209 0.01,-0.419 0.012,-0.628 0.122,-5.118 0.188,-10.249 0.188,-15.397 0,-350.148 -283.851,-634 -634,-634 -3.477,0 -6.946,0.038 -10.41,0.094 -0.947,0.016 -1.893,0.035 -2.838,0.055 -2.888,0.058 -5.772,0.136 -8.65,0.234 -0.632,0.021 -1.265,0.036 -1.896,0.06 -3.416,0.126 -6.824,0.282 -10.226,0.461 -0.843,0.045 -1.684,0.097 -2.526,0.145 -2.75,0.156 -5.495,0.33 -8.236,0.522 -0.847,0.058 -1.694,0.114 -2.539,0.176 -3.387,0.25 -6.768,0.523 -10.14,0.825 -0.585,0.053 -1.167,0.114 -1.752,0.167 -2.872,0.267 -5.738,0.553 -8.599,0.857 -0.912,0.098 -1.823,0.194 -2.734,0.295 -3.322,0.368 -6.639,0.753 -9.946,1.172 -0.061,0.008 -0.123,0.014 -0.184,0.022 -3.37,0.429 -6.73,0.892 -10.084,1.373 -0.888,0.127 -1.775,0.258 -2.662,0.39 -2.807,0.414 -5.609,0.846 -8.404,1.298 -0.599,0.096 -1.201,0.187 -1.8,0.286 -3.314,0.545 -6.619,1.118 -9.916,1.714 -0.763,0.138 -1.525,0.283 -2.287,0.424 -2.694,0.497 -5.382,1.011 -8.063,1.542 -0.791,0.157 -1.584,0.311 -2.374,0.47 -3.286,0.664 -6.564,1.35 -9.831,2.065 -0.466,0.101 -0.929,0.21 -1.394,0.312 -2.858,0.632 -5.707,1.285 -8.55,1.955 -0.831,0.197 -1.663,0.393 -2.493,0.592 -3.211,0.772 -6.416,1.559 -9.607,2.378 -0.044,0.011 -0.088,0.021 -0.132,0.033 -3.266,0.839 -6.518,1.711 -9.763,2.602 -0.787,0.215 -1.571,0.434 -2.357,0.653 -2.746,0.764 -5.485,1.546 -8.216,2.346 -0.533,0.156 -1.068,0.307 -1.6,0.465 -3.205,0.949 -6.399,1.923 -9.583,2.921 -0.641,0.201 -1.28,0.408 -1.92,0.611 -2.669,0.846 -5.33,1.708 -7.984,2.589 -0.687,0.227 -1.375,0.452 -2.06,0.682 -3.183,1.068 -6.356,2.156 -9.515,3.272 -0.303,0.107 -0.605,0.219 -0.908,0.326 -2.865,1.018 -5.719,2.058 -8.566,3.115 -0.718,0.267 -1.436,0.534 -2.154,0.804 -6.279,2.358 -12.511,4.812 -18.693,7.363 -0.654,0.27 -1.305,0.542 -1.957,0.814 -2.711,1.129 -5.413,2.274 -8.105,3.439 -0.417,0.181 -0.837,0.359 -1.255,0.54 -3.09,1.346 -6.167,2.717 -9.231,4.111 -0.486,0.22 -0.97,0.446 -1.456,0.668 -2.655,1.215 -5.3,2.45 -7.936,3.701 -0.554,0.262 -1.109,0.523 -1.662,0.788 -3.068,1.468 -6.126,2.955 -9.167,4.469 -0.097,0.049 -0.193,0.099 -0.29,0.147 -2.896,1.445 -5.775,2.916 -8.646,4.403 -0.574,0.298 -1.148,0.596 -1.721,0.895 -5.985,3.125 -11.915,6.342 -17.786,9.65 -0.494,0.279 -0.987,0.56 -1.48,0.839 -2.683,1.523 -5.355,3.061 -8.014,4.62 -0.273,0.16 -0.547,0.318 -0.82,0.479 -2.963,1.744 -5.911,3.512 -8.844,5.302 -0.301,0.185 -0.6,0.372 -0.9,0.555 -2.644,1.621 -5.274,3.262 -7.893,4.92 -0.405,0.256 -0.811,0.512 -1.215,0.769 -5.758,3.665 -11.451,7.421 -17.081,11.265 -0.415,0.283 -0.829,0.567 -1.243,0.851 -5.643,3.873 -11.221,7.833 -16.731,11.882 -0.329,0.242 -0.657,0.485 -0.986,0.728 -2.623,1.935 -5.231,3.888 -7.823,5.861 -0.138,0.106 -0.278,0.21 -0.417,0.316 -2.8,2.137 -5.581,4.297 -8.344,6.478 -0.128,0.101 -0.255,0.204 -0.383,0.305 -2.59,2.048 -5.161,4.117 -7.717,6.205 -0.266,0.217 -0.533,0.433 -0.798,0.651 -5.354,4.385 -10.634,8.858 -15.839,13.414 -0.277,0.242 -0.553,0.484 -0.83,0.726 -5.222,4.587 -10.369,9.256 -15.438,14.01 -0.188,0.177 -0.375,0.354 -0.563,0.531 -2.5,2.35 -4.983,4.718 -7.444,7.108 -0.032,0.03 -0.063,0.06 -0.095,0.091 -5.09,4.944 -10.094,9.975 -15.016,15.086 -0.147,0.153 -0.294,0.304 -0.441,0.456 -4.874,5.073 -9.664,10.226 -14.369,15.457 -0.156,0.173 -0.311,0.346 -0.467,0.52 -4.723,5.263 -9.36,10.604 -13.907,16.023 -0.077,0.092 -0.153,0.184 -0.23,0.275 -6.881,8.212 -13.558,16.6 -20.024,25.158 -0.075,0.099 -0.15,0.197 -0.224,0.296 -4.291,5.686 -8.487,11.445 -12.588,17.277 -0.088,0.125 -0.175,0.25 -0.263,0.375 -4.116,5.863 -8.136,11.796 -12.056,17.801 -0.019,0.029 -0.038,0.059 -0.057,0.088 -5.915,9.066 -11.604,18.294 -17.06,27.674 -0.043,0.073 -0.086,0.146 -0.129,0.221 -3.613,6.215 -7.122,12.498 -10.526,18.845 -0.057,0.105 -0.113,0.21 -0.169,0.315 C 6.512,-12.943 3.201,-6.504 0,0" /></g></g></g><g
       id="g36"><g
         clip-path="url(#clipPath42)"
         id="g38"><g
           transform="translate(120.4413,359.1024)"
           id="g44"><path
             id="path46"
             style="fill:#b80022;fill-opacity:1;fill-rule:nonzero;stroke:none"
             d="m 0,0 c 93.932,0 170.079,76.147 170.079,170.079 0,93.932 -76.147,170.079 -170.079,170.079 -93.932,0 -170.079,-76.147 -170.079,-170.079 C -170.079,76.147 -93.932,0 0,0" /></g><g
           transform="translate(275.8859,483.4489)"
           id="g48"><path
             id="path50"
             style="fill:#d12414;fill-opacity:1;fill-rule:nonzero;stroke:none"
             d="m 0,0 c 62.621,0 113.386,50.765 113.386,113.386 0,62.621 -50.765,113.386 -113.386,113.386 -62.621,0 -113.386,-50.765 -113.386,-113.386 C -113.386,50.765 -62.621,0 0,0" /></g><g
           id="g52"><g
             id="g54" /><g
             id="g66"><g
               style="opacity:0.14999402"
               id="g64"
               clip-path="url(#clipPath58)"><g
                 id="g62"
                 transform="translate(283.8071,426.8347)"><path
                   id="path60"
                   style="fill:#ffffff;fill-opacity:1;fill-rule:nonzero;stroke:none"
                   d="m 0,0 c 31.311,0 56.693,25.382 56.693,56.693 0,31.311 -25.382,56.693 -56.693,56.693 -31.311,0 -56.693,-25.382 -56.693,-56.693 C -56.693,25.382 -31.311,0 0,0" /></g></g></g></g></g></g><g
       id="g68"><g
         clip-path="url(#clipPath74)"
         id="g70"><g
           transform="translate(2088,238)"
           id="g76"><path
             id="path78"
             style="fill:#b80022;fill-opacity:1;fill-rule:nonzero;stroke:none"
             d="M 0,0 C 220.914,0 400,179.086 400,400 400,620.914 220.914,800 0,800 -220.914,800 -400,620.914 -400,400 -400,179.086 -220.914,0 0,0" /></g><g
           transform="translate(2346,-50)"
           id="g80"><path
             id="path82"
             style="fill:#d12414;fill-opacity:1;fill-rule:nonzero;stroke:none"
             d="M 0,0 C 138.071,0 250,111.929 250,250 250,388.071 138.071,500 0,500 -138.071,500 -250,388.071 -250,250 -250,111.929 -138.071,0 0,0" /></g><g
           id="g84"><g
             id="g86" /><g
             id="g98"><g
               style="opacity:0.14999402"
               id="g96"
               clip-path="url(#clipPath90)"><g
                 id="g94"
                 transform="translate(2104,106.1102)"><path
                   id="path92"
                   style="fill:#ffffff;fill-opacity:1;fill-rule:nonzero;stroke:none"
                   d="M 0,0 C 55.228,0 100,44.772 100,100 100,155.228 55.228,200 0,200 -55.229,200 -100,155.228 -100,100 -100,44.772 -55.229,0 0,0" /></g></g></g></g></g></g></g></svg>