<?xml version="1.0" encoding="UTF-8" standalone="no"?>
<svg
   xmlns:dc="http://purl.org/dc/elements/1.1/"
   xmlns:cc="http://creativecommons.org/ns#"
   xmlns:rdf="http://www.w3.org/1999/02/22-rdf-syntax-ns#"
   xmlns:svg="http://www.w3.org/2000/svg"
   xmlns="http://www.w3.org/2000/svg"
   viewBox="0 0 3200 1066.6667"
   height="1066.6667"
   width="3200"
   xml:space="preserve"
   id="svg2"
   version="1.1"><metadata
     id="metadata8"><rdf:RDF><cc:Work
         rdf:about=""><dc:format>image/svg+xml</dc:format><dc:type
           rdf:resource="http://purl.org/dc/dcmitype/StillImage" /></cc:Work></rdf:RDF></metadata><defs
     id="defs6"><clipPath
       id="clipPath18"
       clipPathUnits="userSpaceOnUse"><path
         id="path16"
         d="M 0,0 H 2400 V 800 H 0 Z" /></clipPath><clipPath
       id="clipPath30"
       clipPathUnits="userSpaceOnUse"><path
         id="path28"
         d="M 0,29.055 H 2400 V 800 H 0 Z" /></clipPath><clipPath
       id="clipPath42"
       clipPathUnits="userSpaceOnUse"><path
         id="path40"
         d="M 0,0 H 487.5 V 415.59 H 0 Z" /></clipPath><clipPath
       id="clipPath58"
       clipPathUnits="userSpaceOnUse"><path
         id="path56"
         d="M -42.0896,312.465 H 186.682 V 83.6934 H -42.0896 Z" /></clipPath></defs><g
     transform="matrix(1.3333333,0,0,-1.3333333,0,1066.6667)"
     id="g10"><g
       id="g12"><g
         clip-path="url(#clipPath18)"
         id="g14"><g
           transform="translate(2400)"
           id="g20"><path
             id="path22"
             style="fill:#ca0018;fill-opacity:1;fill-rule:nonzero;stroke:none"
             d="M 0,0 V 29.055 46 620.804 C -403.007,282.678 -922.668,79.055 -1489.894,79.055 c -323.056,0 -630.674,66.065 -910.106,185.396 V 46 29.055 0 Z" /></g></g></g><g
       id="g24"><g
         clip-path="url(#clipPath30)"
         id="g26"><g
           transform="translate(3364.2017,1785.3052)"
           id="g32"><path
             id="path34"
             style="fill:#d12414;fill-opacity:1;fill-rule:nonzero;stroke:none"
             d="m 0,0 v 290.75 h -4672.202 v -623.899 c 418.793,-826.417 1276.308,-1392.877 2266.159,-1392.877 1117.921,0 2067.086,722.5 2406.043,1726.026 m -256.133,-129.495 c -309.643,-916.738 -1176.722,-1576.755 -2197.962,-1576.755 -904.246,0 -1687.601,517.472 -2070.175,1272.418 V 136.11 h 4268.137 z" /></g></g></g><g
       id="g36"><g
         clip-path="url(#clipPath42)"
         id="g38"><g
           transform="translate(242.375,-17.5669)"
           id="g44"><path
             id="path46"
             style="fill:#b80022;fill-opacity:1;fill-rule:nonzero;stroke:none"
             d="m 0,0 c 93.932,0 170.079,76.147 170.079,170.079 0,93.932 -76.147,170.078 -170.079,170.078 -93.932,0 -170.079,-76.146 -170.079,-170.078 C -170.079,76.147 -93.932,0 0,0" /></g><g
           transform="translate(150.8071,230.2047)"
           id="g48"><path
             id="path50"
             style="fill:#d12414;fill-opacity:1;fill-rule:nonzero;stroke:none"
             d="m 0,0 c 31.311,0 56.693,25.382 56.693,56.693 0,31.311 -25.382,56.693 -56.693,56.693 -31.311,0 -56.693,-25.382 -56.693,-56.693 C -56.693,25.382 -31.311,0 0,0" /></g><g
           id="g52"><g
             id="g54" /><g
             id="g66"><g
               style="opacity:0.14999402"
               id="g64"
               clip-path="url(#clipPath58)"><g
                 id="g62"
                 transform="translate(72.2963,84.6934)"><path
                   id="path60"
                   style="fill:#ffffff;fill-opacity:1;fill-rule:nonzero;stroke:none"
                   d="m 0,0 c 62.621,0 113.386,50.765 113.386,113.386 0,62.621 -50.765,113.386 -113.386,113.386 -62.621,0 -113.386,-50.765 -113.386,-113.386 C -113.386,50.765 -62.621,0 0,0" /></g></g></g></g></g></g></g></svg>