<?xml version="1.0" encoding="UTF-8" standalone="no"?>
<svg
   xmlns:dc="http://purl.org/dc/elements/1.1/"
   xmlns:cc="http://creativecommons.org/ns#"
   xmlns:rdf="http://www.w3.org/1999/02/22-rdf-syntax-ns#"
   xmlns:svg="http://www.w3.org/2000/svg"
   xmlns="http://www.w3.org/2000/svg"
   viewBox="0 0 3200 1066.6667"
   height="1066.6667"
   width="3200"
   xml:space="preserve"
   id="svg2"
   version="1.1"><metadata
     id="metadata8"><rdf:RDF><cc:Work
         rdf:about=""><dc:format>image/svg+xml</dc:format><dc:type
           rdf:resource="http://purl.org/dc/dcmitype/StillImage" /></cc:Work></rdf:RDF></metadata><defs
     id="defs6"><clipPath
       id="clipPath18"
       clipPathUnits="userSpaceOnUse"><path
         id="path16"
         d="M 0,0 H 2400 V 800 H 0 Z" /></clipPath><clipPath
       id="clipPath30"
       clipPathUnits="userSpaceOnUse"><path
         id="path28"
         d="M 0,0 H 2400 V 800 H 0 Z" /></clipPath><clipPath
       id="clipPath42"
       clipPathUnits="userSpaceOnUse"><path
         id="path40"
         d="M 57,80 H 577.501 V 563.78 H 57 Z" /></clipPath><clipPath
       id="clipPath58"
       clipPathUnits="userSpaceOnUse"><path
         id="path56"
         d="M 274.937,251.079 H 390.323 V 135.693 H 274.937 Z" /></clipPath></defs><g
     transform="matrix(1.3333333,0,0,-1.3333333,0,1066.6667)"
     id="g10"><g
       id="g12"><g
         clip-path="url(#clipPath18)"
         id="g14"><g
           transform="translate(2400)"
           id="g20"><path
             id="path22"
             style="fill:#ca0018;fill-opacity:1;fill-rule:nonzero;stroke:none"
             d="M 0,0 V 800 H -89.672 C -104.827,467.943 -277.473,176.962 -534.675,0 Z M -2143.895,800 H -2400 V 0 h 701.108 c -257.202,176.962 -429.847,467.943 -445.003,800" /></g></g></g><g
       id="g24"><g
         clip-path="url(#clipPath30)"
         id="g26"><g
           transform="translate(2344.4419,852.3297)"
           id="g32"><path
             id="path34"
             style="fill:#b60b19;fill-opacity:1;fill-rule:nonzero;stroke:none"
             d="m 0,0 c 0,567.868 -460.348,1028.217 -1028.217,1028.217 -54.887,0 -108.763,-4.319 -161.322,-12.602 42.037,5.234 84.859,7.942 128.314,7.942 567.868,0 1028.216,-460.348 1028.216,-1028.216 0,-512.982 -375.665,-938.205 -866.893,-1015.616 C -392.593,-957.119 0,-524.413 0,0" /></g></g></g><g
       id="g36"><g
         clip-path="url(#clipPath42)"
         id="g38"><g
           transform="translate(284.4413,184.8819)"
           id="g44"><path
             id="path46"
             style="fill:#b60b19;fill-opacity:1;fill-rule:nonzero;stroke:none"
             d="m 0,0 c 93.932,0 170.079,76.147 170.079,170.079 0,93.932 -76.147,170.078 -170.079,170.078 -93.932,0 -170.079,-76.146 -170.079,-170.078 C -170.079,76.147 -93.932,0 0,0" /></g><g
           transform="translate(419.2875,156.581)"
           id="g48"><path
             id="path50"
             style="fill:#d12414;fill-opacity:1;fill-rule:nonzero;stroke:none"
             d="m 0,0 c 62.621,0 113.386,50.765 113.386,113.386 0,62.621 -50.765,113.386 -113.386,113.386 -62.621,0 -113.386,-50.765 -113.386,-113.386 C -113.386,50.765 -62.621,0 0,0" /></g><g
           id="g52"><g
             id="g54" /><g
             id="g66"><g
               style="opacity:0.14999402"
               id="g64"
               clip-path="url(#clipPath58)"><g
                 id="g62"
                 transform="translate(332.6302,136.6929)"><path
                   id="path60"
                   style="fill:#ffffff;fill-opacity:1;fill-rule:nonzero;stroke:none"
                   d="m 0,0 c 31.311,0 56.693,25.382 56.693,56.693 0,31.311 -25.382,56.693 -56.693,56.693 -31.311,0 -56.693,-25.382 -56.693,-56.693 C -56.693,25.382 -31.311,0 0,0" /></g></g></g></g></g></g></g></svg>