<svg width="50" height="50" viewBox="0 0 50 50" xmlns="http://www.w3.org/2000/svg"><g fill="none"><circle stroke="#FFF" stroke-width="2" cx="25" cy="25" r="24"/><path d="M25.31 36.267c-.36 0-.668-.128-.925-.385S24 35.317 24 34.957v-2.62c0-.378.128-.695.385-.952S24.95 31 25.31 31c.36 0 .668.128.925.385s.386.574.386.95v2.622c0 .36-.128.668-.385.925s-.565.385-.925.385zM25.31 28.776c-.36 0-.668-.13-.925-.385-.257-.256-.385-.565-.385-.924V14.31c0-.36.128-.668.385-.925S24.95 13 25.31 13c.36 0 .668.128.925.385s.386.566.386.925v13.156c0 .36-.128.668-.385.925s-.565.386-.925.386z" fill="#FFF"/></g></svg>